<svg width="99" height="100" viewBox="0 0 628 622" xmlns="http://www.w3.org/2000/svg"><title>jayway-logo-white</title><desc>Created with Sketch.</desc><g fill="none"><path id="Shape" fill="#fff" d="M0 204h628v418h-628zM56 47v100.2c0 21.2-8.8 32.5-27.5 32.5-2.3 0-4.5-.5-6.5-.9v-11.8h4.5c10.8 0 14.5-5.3 14.5-19.3v-100.7h15zm3-36.1c0 5.9-4.5 10.6-10.4 10.6s-10.4-4.7-10.4-10.6c0-5.6 4.5-10.4 10.4-10.4s10.4 4.7 10.4 10.4zm80 49.9v-13.8h14v90h-14v-15.7c-4 8.1-14.5 18.1-31 18.1-24.2 0-41.8-19-41.8-47.4 0-28.9 19.2-47.4 43.6-47.4 16.1-.1 26.2 9.4 29.2 16.2zm-58.3 30.7c0 21.2 12.4 34.8 29.4 34.8 18.3 0 28.9-15.4 28.9-34.3 0-18.7-10.4-34.3-28.7-34.3-17.7-.1-29.6 14.1-29.6 33.8zm94.4-44.5l27.5 69.8 27.5-69.8h14.2l-52.3 131h-14.2l17.8-43.9-35.7-87.1h15.2zm78.3 0l23 62.1 25.7-60.1h2.5l25.5 60.1 23-62.1h14.7l-35.2 91h-2.3l-27.1-62.3-27.2 62.3h-2.5l-35-91h14.9zm183.6 13.8v-13.8h14v90h-14v-15.7c-4 8.1-14.4 18.1-30.9 18.1-24.2 0-41.8-19-41.8-47.4 0-28.9 19.2-47.4 43.6-47.4 16-.1 26.1 9.4 29.1 16.2zm-58.2 30.7c0 21.2 12.4 34.8 29.4 34.8 18.3 0 28.9-15.4 28.9-34.3 0-18.7-10.4-34.3-28.7-34.3-17.7-.1-29.6 14.1-29.6 33.8zm94.4-44.5l27.5 69.8 27.5-69.8h14.2l-52.4 131h-14.2l17.8-43.9-35.5-87.1h15.1zm83.7 81.7c0 5.9-5 10.6-10.8 10.6-6.1 0-10.8-4.7-10.8-10.6 0-6.1 4.7-11.1 10.8-11.1 5.9.1 10.8 5 10.8 11.1z"/><path d="M60.3 341.5c.9-2.4 2.2-4.6 3.8-6.3 1.6-1.8 3.6-3.2 6-4.3 2.3-1 5-1.6 7.9-1.6 2.9 0 5.5.5 8 1.6 2.5 1 4.6 2.5 6.4 4.3 1.8 1.8 3.2 3.9 4.2 6.3s1.5 5.1 1.5 7.9c0 2.8-.5 5.4-1.5 7.9-1 2.4-2.4 4.6-4.2 6.3-1.8 1.8-3.9 3.2-6.4 4.3-2.5 1-5.1 1.6-8 1.6-2.9 0-5.6-.5-7.9-1.6-2.3-1-4.3-2.5-6-4.3-1.7-1.8-2.9-3.9-3.8-6.3-.9-2.4-1.3-5.1-1.3-7.9-.1-2.8.4-5.4 1.3-7.9zm44.7-48.5h-7v40h-.4c-1.1-2-2.5-3.4-4.1-4.6-1.6-1.2-3.2-2.3-4.9-3.1-1.7-.8-3.5-1.4-5.3-1.8-1.8-.4-3.6-.6-5.2-.6-3.9 0-7.6.7-10.8 2-3.3 1.3-6.1 3.2-8.4 5.5-2.4 2.4-4.2 5.2-5.5 8.4-1.3 3.2-2 6.7-2 10.5s.7 7.3 2 10.5 3.2 6 5.5 8.4c2.4 2.4 5.2 4.2 8.4 5.5 3.3 1.3 6.9 2 10.8 2 1.6 0 3.4-.2 5.2-.5 1.8-.4 3.6-.9 5.3-1.7 1.7-.8 3.4-1.9 4.9-3.1 1.6-1.2 2.9-2.5 4.1-4.5h.4v9h7v-81.9zm25.4 8.1c-1.1-1-2.3-1.5-3.6-1.5-1.3 0-2.5.5-3.6 1.5s-1.6 2.2-1.6 3.7.5 2.7 1.6 3.7 2.3 1.5 3.6 1.5c1.3 0 2.5-.5 3.6-1.5s1.6-2.2 1.6-3.7-.5-2.7-1.6-3.7zm-.4 22.9h-7v51h7v-51zm25.4 17.3c1-2.3 2.3-4.4 4-6.1 1.7-1.8 3.7-3.2 5.9-4.2 2.3-1 4.7-1.6 7.4-1.6 2.9 0 5.6.5 8 1.6 2.4 1 4.4 2.4 6 4.2 1.6 1.8 2.9 3.8 3.8 6.1.9 2.3 1.3 4.8 1.3 7.5.1 2.9-.4 5.6-1.3 8-1 2.4-2.4 4.4-4.1 6.1-1.8 1.7-3.9 3-6.2 3.9-2.3.9-4.8 1.4-7.4 1.4-2.7 0-5.1-.5-7.4-1.6-2.3-1-4.2-2.4-5.9-4.2-1.7-1.8-3-3.8-4-6.1s-1.5-4.8-1.5-7.5.4-5.2 1.4-7.5zm-8 49c3.2 3.4 6.8 6 10.8 7.6 3.9 1.6 8.4 2.5 13.5 2.5 5.7 0 10.3-.9 13.8-2.6 3.5-1.7 6.3-3.9 8.2-6.5 2-2.6 3.5-5.4 4.2-8.5.7-3.1 1.2-6 1.2-8.7v-50.1h-7v9h-.7c-1.4-2-3-3.7-4.6-5-1.7-1.3-3.3-2.3-5-3.1-1.7-.7-3.4-1.3-5.1-1.6-1.7-.3-3.3-.5-4.8-.5-3.7 0-7.2.7-10.3 2-3.1 1.3-5.8 3.2-8.1 5.5-2.3 2.4-4 5.1-5.3 8.3-1.3 3.2-1.9 6.6-1.9 10.2 0 3.7.7 7.1 2 10.2 1.4 3.2 3.2 5.9 5.6 8.1 2.4 2.3 5.1 4 8.3 5.3 3.2 1.3 6.6 1.9 10.3 1.9 3.7 0 7.1-.8 10.4-2.2 3.3-1.4 6.1-3.4 8.4-7.4h.7v9.1c0 2.7-.6 5.3-1.3 7.7-.7 2.4-1.9 4.5-3.5 6.3-1.5 1.8-3.6 3.2-6.1 4.3-2.5 1-5.6 1.6-9.2 1.6-4.1 0-7.8-.8-11.2-2.5-3.3-1.7-6.1-3.9-8.1-6.7l-5.2 5.8zm77.1-89.2c-1.1-1-2.3-1.5-3.6-1.5-1.3 0-2.5.5-3.6 1.5s-1.6 2.2-1.6 3.7.5 2.7 1.6 3.7 2.3 1.5 3.6 1.5c1.3 0 2.5-.5 3.6-1.5s1.6-2.2 1.6-3.7c.1-1.5-.5-2.7-1.6-3.7zm.5 22.9h-8v51h8v-51zm44 0h-15v-14h-7v14h-10v7h10v31.4c0 2.8.6 5.1 1.4 6.8.8 1.7 1.9 3.1 3.1 4.1 1.2 1 2.6 1.7 4.1 2 1.5.4 2.9.5 4.3.5 3.7 0 6.9-.6 9.6-1.8l-.3-6.6c-1.1.6-2.3 1-3.5 1.4-1.3.4-2.5.5-3.8.5-1.1 0-2.1-.1-3-.4-.9-.3-1.7-.7-2.3-1.3-.6-.6-1.4-1.6-1.7-2.7-.4-1.2-.8-2.7-.8-4.6v-29.3h15v-7h-.1zm19.7-22.9c-1.1-1-2.3-1.5-3.6-1.5-1.3 0-2.5.5-3.6 1.5s-1.6 2.2-1.6 3.7.5 2.7 1.6 3.7 2.3 1.5 3.6 1.5c1.3 0 2.5-.5 3.6-1.5s1.6-2.2 1.6-3.7-.6-2.7-1.6-3.7zm.3 22.9h-7v51h7v-51zm53 0h-39v7h28.3l-29.3 38.4v5.6h41v-7h-30.9l29.9-38.6v-5.4zm20.9-22.9c-1.1-1-2.3-1.5-3.6-1.5-1.3 0-2.5.5-3.6 1.5s-1.6 2.2-1.6 3.7.5 2.7 1.6 3.7 2.3 1.5 3.6 1.5c1.3 0 2.5-.5 3.6-1.5s1.6-2.2 1.6-3.7-.5-2.7-1.6-3.7zm.1 22.9h-7v51h7v-51zm17.8 0c.1 0 .1 3.9.2 6s0 3.9 0 5.3v39.7h7v-26.3c0-4.6.9-8.2 2.4-10.8 1.4-2.6 3.2-4.5 5-5.8 1.8-1.3 3.6-2.1 5.3-2.4 1.6-.3 2.7-.4 3-.4 5.2 0 8.7 1.5 10.6 4.5 1.9 3 2.7 7.3 2.7 12.9v28.3h7v-32.4c0-6.3-1.3-11.2-4.4-14.6-3.1-3.4-7.7-5.1-14.2-5.1-1.7 0-3.3.2-4.9.7-1.7.5-3.3 1.1-4.8 1.9-1.5.8-2.9 1.7-4.1 2.8-1.2 1.1-2.2 2.6-3 3.6h-.2c0-1 0-2.7-.1-4 0-1.3-.1-2-.3-4h-7.2v.1zm68.2 17.3c1-2.3 2.3-4.4 4-6.1 1.7-1.8 3.7-3.2 5.9-4.2 2.3-1 4.7-1.6 7.4-1.6 2.9 0 5.6.5 8 1.6 2.4 1 4.4 2.4 6 4.2 1.6 1.8 2.9 3.8 3.8 6.1.9 2.3 1.3 4.8 1.3 7.5.1 2.9-.4 5.6-1.3 8-1 2.4-2.4 4.4-4.1 6.1-1.8 1.7-3.9 3-6.2 3.9-2.3.9-4.8 1.4-7.4 1.4-2.7 0-5.1-.5-7.4-1.6-2.3-1-4.2-2.4-5.9-4.2-1.7-1.8-3-3.8-4-6.1s-1.5-4.8-1.5-7.5.5-5.2 1.4-7.5zm-8 49c3.2 3.4 6.8 6 10.8 7.6 3.9 1.6 8.4 2.5 13.5 2.5 5.7 0 10.3-.9 13.8-2.6 3.5-1.7 6.3-3.9 8.2-6.5 2-2.6 3.2-5.4 3.9-8.5.7-3.1.9-6 .9-8.7v-50.1h-7v9h-.1c-1.4-2-3-3.7-4.6-5-1.7-1.3-3.3-2.3-5-3.1-1.7-.7-3.4-1.3-5.1-1.6-1.7-.3-3.3-.5-4.8-.5-3.7 0-7.2.7-10.3 2-3.1 1.3-5.8 3.2-8.1 5.5s-4 5.1-5.3 8.3c-1.3 3.2-1.9 6.6-1.9 10.2 0 3.7.7 7.1 2 10.2 1.4 3.2 3.2 5.9 5.6 8.1 2.4 2.3 5.1 4 8.3 5.3 3.2 1.3 6.6 1.9 10.3 1.9 3.7 0 7.1-.8 10.4-2.2 3.3-1.4 6.1-3.4 8.4-7.4h.1v9.1c0 2.7-.3 5.3-.9 7.7-.7 2.4-1.8 4.5-3.3 6.3-1.5 1.8-3.6 3.2-6.1 4.3-2.5 1-5.6 1.6-9.1 1.6-4.1 0-7.8-.8-11.1-2.5s-6-3.9-8.1-6.7l-5.4 5.8zm-377.6 22.6c-1.1-1-2.3-1.5-3.6-1.5-1.3 0-2.5.5-3.6 1.5s-1.6 2.2-1.6 3.7.5 2.7 1.6 3.7 2.3 1.5 3.6 1.5c1.3 0 2.5-.5 3.6-1.5s1.6-2.2 1.6-3.7-.6-2.7-1.6-3.7zm-.4 23.1h-7v50h7v-50zm24.4 17.3c.9-2.4 2.2-4.6 3.8-6.3 1.6-1.8 3.6-3.2 6-4.3 2.3-1 5-1.6 7.9-1.6 2.9 0 5.5.5 8 1.6 2.5 1 4.6 2.5 6.4 4.3 1.8 1.8 3.2 3.9 4.2 6.3s1.5 5.1 1.5 7.9c0 2.8-.5 5.4-1.5 7.9-1 2.4-2.4 4.6-4.2 6.3-1.8 1.8-3.9 3.2-6.4 4.3-2.5 1-5.1 1.6-8 1.6-2.9 0-5.6-.5-7.9-1.6-2.3-1-4.3-2.5-6-4.3-1.7-1.8-2.9-3.9-3.8-6.3-.9-2.4-1.3-5.1-1.3-7.9 0-2.8.4-5.4 1.3-7.9zm44.6-48.3h-7v39h-.3c-1.1-1-2.5-3-4.1-4.2-1.6-1.2-3.2-2.1-4.9-2.9-1.7-.8-3.5-1.3-5.3-1.7-1.8-.4-3.6-.5-5.2-.5-3.9 0-7.6.7-10.8 2-3.3 1.3-6.1 3.2-8.4 5.5-2.4 2.4-4.2 5.2-5.5 8.4-1.3 3.2-2 6.7-2 10.5s.7 7.3 2 10.5 3.2 6 5.5 8.4c2.4 2.4 5.2 4.2 8.4 5.5 3.3 1.3 6.9 2 10.8 2 1.6 0 3.4-.2 5.2-.5 1.8-.4 3.6-.9 5.3-1.7 1.7-.8 3.4-1.8 4.9-3 1.6-1.2 2.9-2.4 4.1-4.4h.3v8h7v-80.9zm22 52s.5-3.9 1.5-5.9c1-2 2.3-3.6 3.9-5.1 1.6-1.5 3.5-2.7 5.6-3.6 2.2-.9 4.4-1.3 6.7-1.3 5.2 0 9.2 1.3 12.1 4.3 2.9 3 4.3 6.5 4.3 11.5h-34.1v.1zm42 6v-3.1c0-3.4-.7-6.7-1.8-9.7-1.1-3-2.7-5.7-4.8-8-2.1-2.3-4.6-4.1-7.6-5.4-3-1.4-6.4-2-10.2-2-3.6 0-6.9.7-10 2-3.1 1.3-5.8 3.2-8.1 5.5-2.3 2.4-4.1 5.2-5.4 8.4-1.3 3.2-1.9 6.7-1.9 10.5s.7 7.3 2 10.5 3.1 6 5.4 8.4c2.3 2.4 5 4.2 8.2 5.5 3.2 1.3 6.7 2 10.4 2 4.2 0 8.1-.8 11.7-2.5 3.6-1.6 6.9-4.4 10-8.2l-5.5-4.5c-1.4 2.3-3.5 4.3-6.3 6.1-2.8 1.8-6 2.6-9.8 2.6-2.5 0-4.8-.5-7-1.4-2.2-.9-4.1-2.2-5.7-3.8-1.7-1.6-3-3.6-4-5.8-1-2.2-1.6-4.2-1.8-7.2h42.2v.1zm46-2v3.9c0 2.2-.2 4.3-.8 6.3-.6 2-1.5 3.7-2.8 5.2-1.3 1.5-2.9 2.6-4.8 3.5-1.9.9-4.1 1.3-6.7 1.3-1.4 0-2.8-.2-4.2-.5-1.4-.3-2.7-.9-3.8-1.6-1.1-.8-2.1-1.7-2.7-2.9-.7-1.2-1-2.6-1-4.3 0-2.5.9-4.5 2.6-5.9 1.8-1.4 3.9-2.5 6.3-3.2 2.5-.7 5.1-1.3 7.7-1.4 2.7-.2 4.9-.4 6.7-.4h3.5zm-3.4-6c-3 0-6.3.4-10 .7-3.6.3-7 1.1-10.2 2.3-3.2 1.1-5.8 2.9-8 5.3-2.1 2.3-3.2 5.6-3.2 9.7 0 2.4.5 4.6 1.5 6.4 1 1.8 2.3 3.4 3.9 4.6 1.6 1.3 3.5 2.2 5.5 2.8 2.1.6 4.2.9 6.5.9 4.1 0 7.5-.8 10.4-2.3 2.8-1.5 5.3-3.4 7.4-7.4h.2c0 2 .1 2.7.2 4.1.1 1.4.3 2.9.5 3.9h6.9c-.2-1-.6-2.9-.7-5-.2-2.1-.4-4-.4-5.9v-22.5c0-3.1-.4-5.7-1.4-8-1-2.2-2.3-4.1-3.9-5.5-1.7-1.5-3.6-2.6-5.8-3.3-2.3-.7-4.6-1.1-7-1.1-9.5 0-16.6 2.4-21.3 7.3l4.3 5.1c4.4-3.9 9.4-5.9 15.3-5.9 8.6 0 12.8 4.3 12.8 13v.8h-3.5zm61.5-11.3c-1.7-3.3-4-5.6-7-7-3-1.4-6.3-2-9.8-2-2.4 0-4.7.3-6.9.9-2.2.6-4.2 1.5-6 2.7-1.8 1.2-3.2 2.8-4.2 4.7-1 1.9-1.6 4.2-1.6 6.8 0 2.4.5 4.4 1.5 6 1 1.6 2.2 2.9 3.6 3.9s2.8 1.8 4.3 2.3c1.5.5 2.6.9 3.5 1.1l6.9 1.6c2.7.6 4.9 1.5 6.8 2.6 1.9 1.1 2.8 2.9 2.8 5.4 0 1.4-.3 2.7-1 3.8-.7 1.1-1.6 2-2.7 2.6-1.1.7-2.4 1.2-3.8 1.5-1.4.3-2.9.5-4.3.5-3 0-5.6-.7-7.8-2-2.2-1.4-4-3.2-5.4-5.5l-6.1 4.2c2.4 3.6 5.2 6.1 8.6 7.6 3.4 1.5 6.9 2.2 10.8 2.2 2.4 0 4.8-.3 7.2-.9 2.4-.6 4.5-1.5 6.3-2.7 1.8-1.3 3.3-2.9 4.4-4.8 1.1-2 1.7-4.3 1.7-7 0-3.6-1.2-6.6-3.5-9-2.3-2.4-5.3-4-8.8-4.8l-7.2-1.7c-3.3-.8-5.8-1.7-7.4-2.8-1.7-1.1-2.5-2.8-2.5-5.2 0-1.4.3-2.5.9-3.4.6-.9 1.4-1.7 2.4-2.3 1-.6 2.1-1.1 3.4-1.3 1.3-.3 2.5-.4 3.7-.4 2.6 0 4.8.6 6.6 1.8 1.8 1.2 3.2 2.9 4.3 4.9l6.3-4.3zm18.9-28.7v2h-5v15h-3v-15h-5v-2h13zm6 0l5.9 10.1 5.7-10.1h.5l3.2 17h-2.8l-2.1-10.5-4.4 7.5h-.5l-4.3-7.5-2 10.5h-2.8l3-17h.6z" fill="#000"/></g></svg>